<svg xmlns="http://www.w3.org/2000/svg" width="58" height="58" viewBox="0 0 58 58">
    <g fill="#82CF07" fill-rule="evenodd">
        <path d="M43.813 24.866c0 13.917-1.775 18.421-14.97 25.15-13.197-6.729-14.972-11.233-14.972-25.15V14.3l14.971-5.284 14.97 5.284v10.566zm1.246-12.111L29.153 7.14a.93.93 0 0 0-.622 0l-15.906 5.614a.937.937 0 0 0-.625.882v11.229c0 14.53 2.155 19.84 16.42 27.033a.942.942 0 0 0 .844 0c14.266-7.193 16.42-12.503 16.42-27.033V13.637c0-.396-.25-.75-.625-.882z"/>
        <path d="M19.211 26.075a.935.935 0 1 0-1.323 1.323l7.486 7.486a.933.933 0 0 0 1.323 0l13.1-13.1a.935.935 0 1 0-1.324-1.323L26.035 32.9l-6.824-6.824"/>
    </g>
</svg>
