<svg xmlns="http://www.w3.org/2000/svg" width="28" height="20" viewBox="0 0 28 20">
    <g fill="#EE3D42" fill-rule="evenodd">
        <path d="M2 20h4.348V0H2a2 2 0 0 0-2 2v16a2 2 0 0 0 2 2zM21.674 20H26a2 2 0 0 0 2-2V2a2 2 0 0 0-2-2h-4.326v20zM13.987 16.405h-.564v-2.699l-3.031.282.565-1.08-3.29-2.413.873-.489-.846-2.308 1.799.437.666-.926 2.288 2.285-1.208-4.393 1.438.821 1.31-2.365 1.31 2.365 1.464-.82-1.234 4.392 2.31-2.285.67.926 1.774-.437-.847 2.308.9.49-3.317 2.412.592 1.08-3.035-.282v2.7z"/>
    </g>
</svg>
