<svg xmlns="http://www.w3.org/2000/svg" width="58" height="58" viewBox="0 0 58 58">
    <g fill="#069ADB" fill-rule="evenodd">
        <path d="M40.716 24.814h-9.338c-2.418 0-4.378.334-4.378.746s1.96.746 4.378.746h9.338c2.418 0 4.378-.334 4.378-.746s-1.96-.746-4.378-.746M37.807 31.938l-.398 1.591a.05.05 0 0 1-.048.038H21.098a.05.05 0 0 1-.048-.038l-.398-1.59a.046.046 0 0 1 .01-.044c.014-.019.031-.019.038-.019H37.76c.007 0 .024 0 .04.02.014.019.01.035.008.042zm-.048-1.554H20.7c-.478 0-.92.216-1.215.593a1.532 1.532 0 0 0-.28 1.323l.398 1.591a1.54 1.54 0 0 0 1.495 1.168h16.263a1.54 1.54 0 0 0 1.496-1.168l.398-1.591a1.532 1.532 0 0 0-.28-1.323 1.532 1.532 0 0 0-1.216-.593z"/>
        <path d="M47.48 23.97c0-.467.38-.846.846-.846h.796a.846.846 0 0 1 0 1.69h-.796a.846.846 0 0 1-.845-.845zm.896 6.685v8.432c0 .905-.736 1.641-1.641 1.641h-7.211v-1.64c0-.85-.692-1.542-1.542-1.542H20.477c-.85 0-1.542.691-1.542 1.541v1.641h-7.21a1.643 1.643 0 0 1-1.642-1.64v-8.433c0-.55.19-1.092.534-1.522l2.262-2.827h21.125a.746.746 0 0 0 0-1.492H13.585l2.248-6.18a1.646 1.646 0 0 1 1.542-1.08h23.71c.687 0 1.307.434 1.542 1.08l2.247 6.18h-2.913a.746.746 0 0 0 0 1.492h3.62l2.261 2.827c.344.43.534.971.534 1.522zm-.05 14.848H45.94a.05.05 0 0 1-.05-.05V42.22h.846c.601 0 1.164-.17 1.641-.465v3.698a.05.05 0 0 1-.05.05zm-10.294-4.775H20.427v-1.64a.05.05 0 0 1 .05-.05h17.505a.05.05 0 0 1 .05.05v1.64zM12.57 45.453a.05.05 0 0 1-.05.05h-2.387a.05.05 0 0 1-.05-.05v-3.698c.478.295 1.04.465 1.641.465h.846v3.233zm-2.437-20.639h-.796a.846.846 0 0 1 0-1.69h.796a.846.846 0 0 1 0 1.69zm14.798-10.56a.848.848 0 0 1 .83-.679h6.938c.402 0 .75.286.83.68l.36 1.807h-9.32l.362-1.807zm24.191 12.052a2.34 2.34 0 0 0 2.337-2.337 2.34 2.34 0 0 0-2.337-2.337h-.796a2.34 2.34 0 0 0-2.307 1.965l-1.99-5.473a3.142 3.142 0 0 0-2.944-2.062H35.41l-.42-2.1a2.343 2.343 0 0 0-2.292-1.879H25.76c-1.11 0-2.074.79-2.292 1.88l-.42 2.099h-5.673a3.142 3.142 0 0 0-2.945 2.062l-1.99 5.473a2.34 2.34 0 0 0-2.307-1.965h-.796A2.34 2.34 0 0 0 7 23.969a2.34 2.34 0 0 0 2.337 2.337h.796c.367 0 .715-.085 1.025-.237l-1.706 2.132a3.943 3.943 0 0 0-.86 2.454v14.798c0 .85.691 1.541 1.541 1.541h2.387c.85 0 1.542-.691 1.542-1.541V42.22h30.336v3.233c0 .85.691 1.541 1.541 1.541h2.387c.85 0 1.542-.691 1.542-1.541V30.655c0-.888-.306-1.76-.86-2.454l-1.706-2.132c.31.152.657.237 1.024.237h.796z"/>
        <path d="M14.907 35.954c-.85 0-1.541.692-1.541 1.542 0 .85.691 1.542 1.541 1.542s1.542-.692 1.542-1.542c0-.85-.692-1.542-1.542-1.542M43.552 35.954c-.85 0-1.541.692-1.541 1.542 0 .85.691 1.542 1.541 1.542s1.542-.692 1.542-1.542c0-.85-.692-1.542-1.542-1.542M14.51 33.567a1.245 1.245 0 0 1-1.244-1.243c0-.686.558-1.243 1.243-1.243.686 0 1.244.557 1.244 1.243 0 .685-.558 1.243-1.244 1.243zm0-3.978a2.738 2.738 0 0 0-2.736 2.735 2.738 2.738 0 0 0 2.735 2.735 2.738 2.738 0 0 0 2.736-2.735 2.738 2.738 0 0 0-2.736-2.735zM43.95 33.567a1.245 1.245 0 0 1-1.243-1.243c0-.686.558-1.243 1.243-1.243.686 0 1.243.557 1.243 1.243 0 .685-.557 1.243-1.243 1.243zm0-3.978a2.738 2.738 0 0 0-2.735 2.735 2.738 2.738 0 0 0 2.735 2.735 2.738 2.738 0 0 0 2.735-2.735 2.738 2.738 0 0 0-2.735-2.735z"/>
    </g>
</svg>
