<svg xmlns="http://www.w3.org/2000/svg" width="65" height="24" viewBox="0 0 65 24">
    <path fill="#FFF" fill-rule="evenodd" d="M58.348 4.676c3.642.046 6.58 2.975 6.58 6.583 0 3.836-3.321 6.906-7.28 6.557-2.967-.261-5.426-2.492-5.948-5.39a6.525 6.525 0 0 1 .04-2.537h2.575a4.081 4.081 0 0 0 .987 4.293c.992.98 2.394 1.408 3.824 1.126a3.98 3.98 0 0 0 1.39-.56c1.482-.958 2.192-2.632 1.845-4.345a3.888 3.888 0 0 0-.564-1.365 4.19 4.19 0 0 0-3.42-1.908v-.031H41.288a1.471 1.471 0 0 0-1.475 1.46 1.47 1.47 0 0 0 1.475 1.46h5.468v.003c2.573.029 4.556 2.482 3.717 5.155-.503 1.605-2.056 2.664-3.758 2.664h-.008v.002h-7.316a2.335 2.335 0 0 1-1.641-.67l-6.545-6.465v7.134h-2.46v-4.894l-2.93 2.893c-.048.05-.097.098-.147.146l-.052.052-.001-.001a6.689 6.689 0 0 1-4.586 1.805 6.697 6.697 0 0 1-3.36-.898l-6.822 6.738v-12.33c0-1.046-.353-2.078-1.06-2.858a4.187 4.187 0 0 0-3.123-1.384A4.187 4.187 0 0 0 3.54 8.495c-.706.78-1.06 1.812-1.06 2.858v6.5H0v-6.49c0-3.4 2.565-6.336 5.99-6.668l.062-.006c.166-.015.333-.018.5-.018h.225a5.7 5.7 0 0 1 .561.024c3.427.332 5.991 3.268 5.991 6.668v4.328l-.01 2.16 2.495-2.493a6.51 6.51 0 0 1-1.427-4.67c.276-3.219 2.946-5.796 6.209-6a6.696 6.696 0 0 1 5.144 1.911l1.203 1.188-7.422 7.33c.475.182.984.276 1.509.276a4.184 4.184 0 0 0 2.83-1.088l-.002-.003 4.888-4.829V0h2.46v7.044l2.425-2.395h3.518l-4.28 4.227 5.743 5.673a2.94 2.94 0 0 0 2.065.844h6.031l.001-.002h.002c.924 0 1.652-.842 1.441-1.79-.15-.674-.79-1.132-1.49-1.132h-5.43v-.001c-2.16-.032-3.899-1.77-3.899-3.91 0-2.148 1.755-3.891 3.926-3.909h16.743c.118 0 .233.01.346.027zm-40.629 8.777l5.814-5.743A4.193 4.193 0 0 0 21.186 7a4.186 4.186 0 0 0-3.032 1.283A4.123 4.123 0 0 0 17 11.153c.004.832.255 1.626.719 2.3z"/>
</svg>
