<svg xmlns="http://www.w3.org/2000/svg" width="28" height="20" viewBox="0 0 28 20">
    <g fill="none" fill-rule="evenodd">
        <path fill="#FEFEFE" d="M.001 19.994h27.994V.002H.001z"/>
        <path fill="#EC1D24" d="M18.669 19.991H26a2 2 0 0 0 2-2V2.001a2 2 0 0 0-2-2h-7.331v19.99z"/>
        <path fill="#00A550" d="M2 19.994h7.331V.002H2a2 2 0 0 0-2 2v15.992a2 2 0 0 0 2 2z"/>
        <path fill="#5F2C0C" d="M15.127 12.377c-.112.017-.208.054-.256.165a.242.242 0 0 1-.244.054c-.069.058-.207.085-.202.191.313.262.49-.25.765-.265-.063-.033-.042-.097-.063-.145zm-2.525-.165c-.164.032-.005.197-.09.282.048.028 0 .176.1.102.113.005.17.106.218.191l-.016-.074c.027-.048.075-.096.144-.08.026.006.06.037.064.064v-.027c.027-.074.106-.085.175-.085.06.016.064.08.08.128.08.112.186.043.303.064.064-.016.122.085.17.01-.122-.148-.35-.106-.409-.319-.096-.01-.255-.048-.282.074-.069.08-.17.064-.266.064-.048-.042-.127-.112-.079-.192a.286.286 0 0 1 .281-.165l-.01-.09c-.08-.08-.388-.165-.383.053zm1.467-.549l-.053.038a.095.095 0 0 1 .037.09l.016-.128zm-2.806-.09c-.043.075.037.133.074.192.07-.085-.09-.113-.074-.192zm1.871-.01l-.065.111c.075.08.15.144.235.192.026-.027-.006-.075.021-.1-.048.01-.086-.017-.112-.055-.022-.042.032-.053.037-.085-.037-.026-.068-.059-.116-.063zm-.787-1.115l.048.23h.18v-.027c-.026-.069.011-.143.074-.192l-.302-.01zm-.117.011l-.064-.037.037.011.027.026zm1.85-.176c.005.091.101.193.01.278-.122-.18-.276 0-.42.015-.09.017-.207.075-.292 0a.244.244 0 0 1 .037-.165c-.185.086-.393-.234-.52-.026l.127.112a.456.456 0 0 1-.064.346l.064-.01c.07.106.122-.054.217 0l-.015-.017a.163.163 0 0 1 .037-.127c.128-.022.255.042.372.08l.011-.065a.232.232 0 0 1 .154 0c.016.251.292.027.372.203.106-.106.281-.053.383-.138-.133-.085-.176-.256-.282-.373l-.053.08c-.09-.028-.074-.139-.139-.193zm-1.138-2.098c.288.473-.52.63-.467 1.087.08.377.557-.01.701.33.08.064-.022.288.128.245-.032-.037-.059-.085-.027-.128h.138l-.138-.33c-.032.021-.086.063-.117.01-.09-.234-.202-.51-.1-.778-.155-.148.122-.207.127-.335-.053-.09.063-.192.037-.293-.08.07-.186.165-.282.192zM15.6 6.996c.048-.03.063-.09.1-.117.038.102.096.256 0 .347.485.181.702.692.878 1.124.07.128.196.165.32.181 0 .042.01.09-.039.112.016.123.048.282-.074.362.031.575.122 1.183-.128 1.673h-.037c-.048-.102.037-.202-.026-.293-.064.032-.022.181-.128.165-.074-.053-.059-.5-.127-.192-.065-.117.026-.34-.128-.373l-.1-.192c.004.064-.076.064-.107.043l-.112-.144c-.01.075-.075.075-.127.053-.048-.026-.085-.079-.128-.117-.037.097-.144.054-.18-.01-.16-.149-.256-.362-.484-.384-.027-.02-.043-.058-.075-.064l.048.33c.468.347.824.965 1.404 1.04.042.016.031.064.015.084-.186.107-.404.23-.617.145-.1.095-.276.07-.392.154.068.07.084.165.126.256.091-.102.181-.224.31-.282.004.031-.027.042-.017.074.064.032.197-.176.192-.01.015.026.02.058.053.074.186-.016.122-.24.302-.256.075.016.17-.032.218.037.091-.015.128-.16.23-.138a.858.858 0 0 1-.192.23c.016.1.042.244-.075.292-.059.016-.1-.02-.153-.02l-.155.127c.037.042.138.01.127.074-.079.154-.36.101-.34.293a.777.777 0 0 1-.424.4c-.054.037-.086-.08-.128 0 .048 0 .085.053.106.085.022.133-.054.224-.117.32.101.074.101-.133.202-.065.042.08-.1.14 0 .182a.262.262 0 0 0 .17-.037c.032-.139-.255-.213-.08-.336.048 0 .091.043.091.091-.037.07.011.117.053.165.016-.34.287-.56.51-.805l.022-.192c.122.053.122.224.116.357.091-.016.17-.138.218-.229.027-.208-.319-.09-.19-.303.031-.048.084-.076.126-.054.048.032.064.117.037.182.07.07.075.17.14.228.036-.265-.145-.586.105-.794.07-.085.165-.159.175-.265.091-.01.027.095.08.127.033-.08.197-.144.101-.245-.079-.117-.414.037-.292-.203.032-.03.085-.058.128-.026.02.026.037.075.01.101l.128.038c-.022-.128-.186-.299-.053-.448.042-.155-.065-.25-.102-.368.08-.01.192.006.23.102.074-.128.111-.26.217-.373.043.095-.032.298.064.4l.026.021c.07-.085.038-.23.011-.33.09.021.096.143.144.217a.818.818 0 0 1-.255.816c.085.032.16-.112.255-.022.015.054-.022.097-.065.112-.042 0-.085.005-.116-.026l-.218.064a5.05 5.05 0 0 1-.037.298c.106.016.181-.17.308-.107-.229.31-.244.73-.638.938.011.032.048.06.074.085.054-.01.117-.085.165-.02.048.031.027.101 0 .138-.048.037-.1.09-.165.052-.074-.047-.005-.17-.11-.19-.054-.027-.123-.012-.182-.017-.043.053-.026.144-.026.192.037-.005.06-.07.101-.064.047.144-.022.31-.085.437-.229.261-.585.208-.883.303.075.081.32.123.154.272-.042.043-.11.016-.127-.037-.02-.048 0-.128-.08-.128l-.1.176c.063.08.265-.064.191.117-.282.048-.527.197-.803.267a1.566 1.566 0 0 1-.537-.347c-.063.006-.193.147-.252.17 0 0 .332.177.37.177 0 0-.107.165-.166.308.005.048-.058.107-.106.065-.1-.118-.244-.262-.394-.219-.053.043-.03.16-.127.154-.006-.106-.388-.176-.484-.09-.058-.107.106-.107.128-.192l.255-.229-.027-.053c-.154.005-.18.325-.329.18-.043.028-.085 0-.117-.026-.048.043-.063.134-.139.128-.063.037-.116-.053-.127-.102-.08.05-.175.097-.27.076-.06-.059 0-.144 0-.193-.123-.005-.182.256-.293.102-.026-.053.048-.09.011-.139-.054.075-.155.091-.24.064-.043-.037-.032-.106-.015-.154.042-.075.201-.069.143-.176-.02-.048-.075-.02-.1-.016-.028.064-.054.15-.129.165-.106-.08-.297.07-.319-.128-.047.006-.063-.048-.09-.074v-.09c-.069 0-.149.053-.229.053-.048-.08-.148-.08-.17-.165 0-.059.064-.059.091-.108-.123-.02-.187-.154-.256-.239a.115.115 0 0 1 .091-.09h.154c-.026-.054-.112-.107-.154-.182-.026.033-.048.075-.09.091-.075.021-.123-.027-.165-.075a.186.186 0 0 1-.18-.026c.031-.107.17-.133.244-.192a.402.402 0 0 1-.41-.075c-.015-.048.022-.074.053-.106-.079-.038-.196-.016-.244-.113-.005-.063.048-.068.08-.117-.059-.048-.154-.053-.17-.138 0-.038-.006-.086.042-.09.196.095.07-.165.213-.165-.017-.065-.085-.102-.128-.155-.1.112-.196-.049-.318-.01a.283.283 0 0 1-.065-.273c.037-.026.091-.053.128-.026.08.075.112.095.218.064-.01-.182-.303-.128-.292-.342a.13.13 0 0 1 .09-.052l.011.01c.063-.095-.138-.32.08-.34l.047.074.027-.18c.07-.05.074.095.154.025l.127-.154c.085.037.054.17.027.235l-.043.063c.06.021.085.048.118.102.005.106-.133.122-.165.217.015 0 .074-.009.1.011l.038.091c.048-.022.08-.085.144-.064.133.122.015.304 0 .448-.059.058-.17.048-.235.01l-.037-.037c-.128.122.075.235.101.357.043-.016.027-.07.064-.074.096.047.032.186.107.255.042-.069 0-.272.148-.192.08.117-.037.24 0 .357.048.005.064-.064.117-.037l.038.064c.052-.054.137-.165.244-.102.058.054.048.176.01.24-.063.085.042.278-.138.272 0 .037-.01.08.011.112.032-.058.09-.112.154-.09.048.042.043.106.101.143a.164.164 0 0 1 .09-.128c.155.011.08.31.282.24.144.08-.032.304.154.346l.075-.165c-.069-.064-.17-.149-.128-.256.07-.074.17-.074.266-.09-.159-.112-.405-.075-.51-.266-.043-.107.026-.224.042-.293.224.133.426.373.702.421.064.032.148.16.212.037l.054-.054c-.054-.026-.128-.059-.139-.127v-.086c-.19.017-.329-.069-.499-.143v-.027l.09-.01c-.154-.054-.218-.315-.409-.204-.08 0-.122-.09-.202-.026-.059-.016-.038-.053-.08-.09-.08-.02-.17-.049-.218-.129-.016-.074.07-.053.106-.074-.016-.154-.255-.18-.17-.347.027-.009.037.011.054.028.08-.09-.038-.16-.065-.235-.1.037-.202-.032-.244-.128-.09-.16.096-.18.17-.277-.085-.053-.09-.176-.063-.272l.037-.01c.026.091-.01.202.074.266.08-.047.196-.075.282-.027.112.075-.006.208.053.283.064.06.005.176.111.207.043-.063-.026-.106-.01-.17.085.011.08.122.112.181l.233.128c-.239-.187-.128-.565-.409-.74-.143-.187.064-.416-.08-.603-.016.043-.063.027-.085.011-.09-.096-.233-.064-.335-.128a.398.398 0 0 1-.127-.128c-.016-.1.064-.186.154-.202.101.064.277-.022.33.117.154-.005.313.117.382.267.096.234-.223.533.144.64.154.106.032.468.303.382.058-.053-.005-.154.063-.202-.153-.016-.297-.144-.366-.282a.73.73 0 0 1 .138-.757l.356-.367c-.08-.176-.346-.096-.483-.117-.043-.038-.122.021-.155-.054-.047-.059-.08-.149-.047-.229.015-.075-.07-.143-.1-.218-.049-.246.237-.278.354-.432.107-.059.113.096.14.154 0 .038.01.08-.012.113-.085.015-.043-.09-.09-.128a.417.417 0 0 0-.053.218c.08.07.165-.016.244-.027-.01.117-.138.166-.218.23.037.015.08.074.144.053.091-.123.228-.197.191-.373.032-.117.176-.106.213-.213.011-.075.042-.17 0-.234.016-.022.042-.006.063-.01.027.036.043.073.081.1.047-.053-.006-.187.09-.192l.047.102c.065-.043-.015-.166.065-.177.068.05.052.128.09.193.111-.033-.016-.193.09-.193.07.065.058.16.075.24.212 0 .494-.026.6.208a.097.097 0 0 1 .053.027c.026-.032 0-.064-.016-.09-.11-.262-.558-.203-.446-.539.266-.293.786-.202 1.11-.074.293.128.596.356.947.228z"/>
        <path fill="#B1764D" d="M13.735 6.933c.053.128.18.011.255.102l-.165.063c-.074-.043-.175-.074-.202-.165.032-.123.16-.171.265-.191l-.153.191z"/>
        <path fill="#B1764D" d="M14.58 6.853c-.017.069.02.144.062.208-.217.032-.387-.085-.525-.22-.064.07.064.15.08.194-.112-.033-.192-.14-.309-.156.16-.282.478-.058.691-.026M15.648 7.06c.016.097-.063.172-.138.203-.277.075-.478-.117-.717-.176a.345.345 0 0 1-.14-.18c.309.106.66.388.995.154M14.553 7.428c-.01-.037-.054-.053-.09-.063l-.038.042.128.331c-.02.004-.085-.102-.128-.038.006.112.091.224.074.357-.068-.022-.048-.15-.153-.128-.054.054 0 .154 0 .23l-.112-.23c.048.017.074-.022.101-.053-.037-.049.09-.08.064-.149.021-.154-.085-.219-.064-.373-.075-.07.042-.17-.053-.23.032-.02.084-.015.117 0 .085.086.117.203.154.304M14.234 7.189c.02.063-.063.09-.116.074-.091.022-.144-.042-.202-.1.095-.028.228-.06.318.026"/>
        <path fill="#A26345" d="M14.973 7.471l.037.176c-.08-.25-.431-.26-.446-.495.191.026.298.175.409.32"/>
        <path fill="#B1764D" d="M13.15 7.354c.059.005.096-.064.128-.102.01.048.016.139.063.193h.038l.01-.117c.155.005.324-.028.436.08-.09.03-.213-.065-.292.02.074.134.265.048.346.208-.096.054-.224-.111-.335-.053.052.107.207.118.28.208-.111.053-.297 0-.408-.09a.26.26 0 0 0 .08-.22c-.113-.058-.054.097-.117.129-.043.042-.107.02-.166.026.027-.063.01-.16-.037-.191h-.026c-.048.053.042.117-.026.165-.075.096-.192-.054-.245.063h-.021c-.017-.031.02-.042.037-.063.037.005.064-.011.09-.037-.011-.07-.09-.091-.144-.117h-.047l.047-.14c.043.038.017.14.102.129l.053-.145c-.005.028.006.049.026.065.069.015.075-.07.09-.113.032.028-.015.08.038.102"/>
        <path fill="#A26345" d="M16.376 8.131c.08.171.148.362.318.464-.457-.165-.499-.688-.765-1.023-.027-.005-.053-.047-.074-.016l.202.373c-.075.085.095.165 0 .256-.037.026-.1.01-.118-.037-.01-.065.081-.033.081-.09-.022-.294-.277-.49-.5-.667.075-.096.223-.053.335.016.25.186.452.437.521.724"/>
        <path fill="#B1764D" d="M14.26 7.408v.048c-.053-.038-.196.037-.17-.091.048.016.176-.085.17.043"/>
        <path fill="#A26345" d="M14.92 7.71l-.192-.229c.09.043.17.14.191.23"/>
        <path fill="#B1764D" d="M14.144 7.748l-.02.17c-.031-.107-.145-.34-.236-.41.128-.005.245.22.256.24"/>
        <path fill="#EC1D24" d="M12.575 7.775c-.025-.102.049-.176.112-.23l.118-.01c-.085.069-.033.288-.23.24"/>
        <path fill="#2AB573" d="M12.114 7.828c.048 0 .063-.01.105.01-.01.022-.143.054-.105.145.042.07.133.032.19.064l.028.176c-.091.032-.192.005-.282-.027-.048-.064-.032-.133 0-.202-.053-.091-.181-.192-.112-.31l.192-.138c-.006.096-.08.192-.016.282"/>
        <path fill="#B1764D" d="M14.308 7.663l-.01.086c-.095-.011-.128-.117-.165-.192.07.01.159.015.175.105"/>
        <path fill="#A26345" d="M14.845 7.876l-.026.106c-.059-.144-.192-.255-.218-.41.122-.006.27.16.244.304M15.855 8.11c0 .075.048.149.01.23-.18.058-.334-.203-.472-.335.11.095.229.165.346.244.09-.053-.006-.127-.011-.192l-.32-.447c.18.128.325.319.447.5"/>
        <path fill="#B1764D" d="M14.042 7.93l-.037.074c-.059.005-.064-.058-.09-.086.042-.005.08-.058.101-.09.021-.118-.085.021-.1-.08l.036-.048c.053.053.117.144.09.23M13.431 7.828c-.105.08.059.395-.153.304 0-.015.132-.256-.155-.421.215.009.245-.01.308.117"/>
        <path fill="#B1764D" d="M13.187 7.876a.34.34 0 0 1-.218.181c.005-.075.048-.16.016-.219-.192.05-.41.107-.51.283l.02.101c-.041 0-.08-.053-.1-.09.043-.102.11-.214.218-.267.074-.038.234.027.228-.1a.391.391 0 0 1 .346.111"/>
        <path fill="#A26345" d="M15.047 7.93c-.032-.043-.096-.118-.01-.166.07.043-.064.106.01.165"/>
        <path fill="#B1764D" d="M13.596 7.94l-.09.256c.058-.102-.134-.336.064-.32l.026.064zM13.761 7.918c.026.06.005.128-.026.176l-.048-.176h.074z"/>
        <path fill="#A26345" d="M14.973 8.222l-.054.064c-.105-.107-.005-.251.017-.368.048.07.063.203.037.304M14.69 8.046c.038.085.038.187.055.277l-.144-.368c.059-.048.17.006.09.091"/>
        <path fill="#B1764D" d="M13.942 8.515a.706.706 0 0 1-.091-.511c.18.096.08.352.09.511"/>
        <path fill="#2AB573" d="M12.906 8.26c.042.447-.648.57-.521 1.05.08.132.026.33.202.41-.133 0-.303-.038-.368-.192-.08-.113-.063-.283-.063-.41.096-.284.415-.427.559-.667a.64.64 0 0 0-.128-.266c-.016-.043.01-.102.063-.117.112 0 .208.106.256.191"/>
        <path fill="#A26345" d="M14.155 8.159l-.037-.091.037.064z"/>
        <path fill="#B1764D" d="M13.75 8.196c0 .11.063.234-.063.309l-.054.037c-.005-.101.054-.192.011-.293-.09.043-.08.155-.1.245-.113-.16.126-.23.09-.383.036.026.042.117.116.085"/>
        <path fill="#A26345" d="M14.643 8.558l-.116-.373.063-.037c.037.117.149.271.053.41M14.282 8.75c-.037-.209-.271-.342-.24-.576a.815.815 0 0 1 .24.575"/>
        <path fill="#B1764D" d="M13.352 8.494h-.026l.089-.282c0 .069.075.234-.063.282M16.684 8.962c-.334-.09-.382-.484-.51-.75.197.24.319.537.51.75M13.213 8.532c-.03.01-.053-.017-.079-.027l.17-.218c-.032.079-.043.18-.09.245"/>
        <path fill="#A26345" d="M14.489 8.77l-.016-.457.08.267z"/>
        <path fill="#B1764D" d="M16.094 8.313c.096.245.218.474.372.692l-.037.037c-.223-.175-.303-.447-.398-.692-.016-.043.037-.037.063-.037"/>
        <path fill="#A26345" d="M15.7 8.478c-.067.037-.147-.037-.217-.074.058-.117.143-.017.217.026v.048zM15.494 8.606c-.042.117-.122.005-.175-.011l-.065-.091c.049-.021.065-.09.038-.138.068.08.227.138.201.24M14.834 8.504c-.016.037-.03.086-.079.102-.027-.065.1-.123.09-.203.026.032-.037.075-.01.101"/>
        <path fill="#B1764D" d="M16.312 9.08c-.164-.107-.33-.357-.393-.576l.02-.063c.107.212.192.447.373.638"/>
        <path fill="#A26345" d="M14.144 8.888c-.054-.122-.133-.234-.102-.395a.534.534 0 0 1 .102.395M13.963 8.914c-.069-.128-.165-.256-.165-.399.117.095.176.24.165.4"/>
        <path fill="#B1764D" d="M16.148 9.08c-.22-.064-.298-.299-.383-.475l.048-.074c.059.202.196.378.335.548M13.772 9.09c-.102.011-.122-.11-.165-.176l-.026-.128.089.048c.096-.063-.02-.165.054-.239.074.143.016.336.048.495M15.648 8.621c.096.155.165.32.28.47-.195.031-.275-.219-.354-.358l.037-.128.037.016z"/>
        <path fill="#A26345" d="M15.291 8.697c-.01.037-.02.074-.053.09-.052 0-.095-.042-.11-.09l.073-.075c.037.01.064.048.09.075"/>
        <path fill="#B1764D" d="M16.785 8.707c.011.06-.026.096-.017.154-.095-.016-.137-.123-.19-.192l.207.038zM11.31 8.707c-.02.037-.095.07-.09.127-.053-.068.037-.116.09-.127M13.506 9.283a.907.907 0 0 1-.154-.448c.015.027.037.032.063.027.085-.037-.015-.106.053-.154-.02.19-.026.41.038.575"/>
        <path fill="#A26345" d="M15.063 8.787l-.016.074a.21.21 0 0 1-.111-.075l.048-.062c.03.003.053.041.079.062M15.154 9.207c-.224-.042-.346-.282-.398-.474.185.133.196.341.398.474"/>
        <path fill="#B1764D" d="M11.502 8.76c-.027.048-.112.117-.064.192-.048.005-.09-.053-.112-.09.006-.076.112-.123.176-.102M15.637 9.07c-.096-.043-.196-.182-.229-.3.144.017.128.209.229.3M13.213 9.272a.91.91 0 0 1-.116-.447c.01.03.031.069.063.074l.08-.085c.047.128.08.34-.027.458M11.592 8.99c-.042.02-.079-.075-.063-.112.037-.016.063-.048.1-.053l-.037.165z"/>
        <path fill="#2AB573" d="M11.9 9.042c.064.187-.105.32-.042.512.335.112.187.538.51.612l.043.166c-.074.01-.122-.027-.192-.01-.238-.182-.095-.534-.381-.677-.113-.213.068-.539-.155-.704l.01-.09c.069.043.17.101.208.191"/>
        <path fill="#B1764D" d="M15.472 9.08l.064.063a.272.272 0 0 1-.217-.117c-.028-.037-.065-.08-.065-.128.122-.08.113.133.218.181"/>
        <path fill="#A26345" d="M14.042 9.053l.102.208c-.07-.085-.128-.277-.266-.256l-.017-.106c.027.08.113.128.181.154"/>
        <path fill="#B1764D" d="M15.319 9.17a.37.37 0 0 1-.245-.165l.08-.09a.665.665 0 0 0 .165.255"/>
        <path fill="#A26345" d="M14.346 9.4c-.064-.117-.176-.224-.191-.347l.191.347z"/>
        <path fill="#86503B" d="M16.568 9.053c.042.325.056.812.039 1.143 0-.335-.071-.786-.093-1.117.017-.009.033-.037.054-.026M16.713 9.011l.008.068-.02 1.277-.067-1.252z"/>
        <path fill="#A26345" d="M14.792 9.245l.042.23-.233-.385c.074.043.095.223.191.155"/>
        <path fill="#86503B" d="M16.185 9.181c.03.213.042.453.037.666a3.703 3.703 0 0 1-.202-.692c.053.01.11.058.165.026M15.994 9.682c-.102-.091-.154-.33-.23-.501.289-.021.156.336.23.501M16.366 9.975v.037l-.054-.805c.028.006.102-.069.09.011.043.262-.025.507-.036.757"/>
        <path fill="#A26345" d="M13.953 9.335c-.011-.01-.085-.09-.064-.139l.064.14z"/>
        <path fill="#86503B" d="M15.765 9.645c-.122-.106-.176-.245-.245-.373.043 0 .075-.106.128-.064.069.133.074.314.117.437"/>
        <path fill="#A26345" d="M14.808 9.602l-.244-.33.015-.026c.1.1.139.245.229.356"/>
        <path fill="#86503B" d="M15.28 9.272c.007-.011.08.02.103-.026l.11.293-.212-.267z"/>
        <path fill="#B1764D" d="M13.707 9.5l.335.464c-.196-.144-.303-.336-.446-.527l.026-.113c.075.028.043.123.085.176"/>
        <path fill="#A26345" d="M14.053 9.82a1.826 1.826 0 0 1-.255-.41l.053-.074c.106.149.154.314.202.485"/>
        <path fill="#86503B" d="M14.414 9.637l-.013.08-.157-.317c.016.042.154.188.17.237"/>
        <path fill="#B1764D" d="M13.113 9.756c-.122-.224-.441.032-.563-.218.169.122.53-.1.563.218"/>
        <path fill="#00A550" d="M17.578 9.858c.03.043.063.01.1 0l.063-.112c.028.266-.062.538-.317.676-.08-.111-.187-.212-.181-.356a.435.435 0 0 0 .016-.373c.1.085.052.25.137.336.048-.155.005-.342.09-.475.017.096.102.202.091.304"/>
        <path fill="#A26345" d="M13.67 10.029l-.239-.448.228.303z"/>
        <path fill="#86503B" d="M16.492 10.305c-.058-.208 0-.469 0-.703.017.229.102.49 0 .703M14.282 9.9c.102-.122.17.182.218-.016.149.219.372.406.447.656-.25-.15-.447-.41-.611-.628-.028.26.259.42.28.676-.143-.331-.42-.608-.51-.96.06.09.09.193.176.273"/>
        <path fill="#A26345" d="M15.146 9.836c-.006.006-.056.037-.051.048l-.136-.247.187.2z"/>
        <path fill="#00A550" d="M10.689 9.949h.11c-.047.085-.221.148-.173.27.02.034.116.07.148.07l-.133.347c-.011-.144-.202-.335-.271-.431.064.01.08-.06.1-.102-.014-.053-.031-.095-.025-.154.037.016.085.042.127.016.058-.06 0-.128 0-.192.043.005.133-.011.18-.064-.004.085-.126.154-.063.24"/>
        <path fill="#86503B" d="M14.564 9.82L14.5 9.71l.1.075zM14.728 9.858c.224.128.298.378.51.538l.373.319-.165.017c-.266-.32-.57-.618-.792-.948.058-.075.064.042.074.074"/>
        <path fill="#FEFEFE" d="M12.703 10.029a.146.146 0 0 1 0-.171l.101-.064c-.016.059-.122.133-.1.235"/>
        <path fill="#86503B" d="M13.224 10.038a.316.316 0 0 1-.175.166c-.117.031-.202-.038-.219-.139-.004-.053-.037-.133.011-.18.133-.156.303.052.383.153"/>
        <path fill="#B1764D" d="M13.516 9.9c-.037.012-.122-.016-.127-.08.048.017.11.022.127.08"/>
        <path fill="#F6931D" d="M11.603 9.847c.016.069-.016.213-.111.139l-.08-.085c.058-.038.117-.065.19-.054"/>
        <path fill="#FEFEFE" d="M12.586 10.029c-.069-.05-.059-.14.016-.182l-.016.182zM13.405 9.975c-.053.054-.101.102-.117.165a.362.362 0 0 0 .027-.256l.09.091z"/>
        <path fill="#86503B" d="M16.185 10.604a.341.341 0 0 1-.154.063c-.266-.218-.537-.436-.792-.692v-.063c.319.217.557.633.946.692M15.7 10.624c-.275-.19-.498-.43-.716-.703l.716.703z"/>
        <path fill="#F6931D" d="M11.465 10.076c-.032.021-.075.053-.117.026-.016-.005-.022.016-.037.027-.037-.047-.09-.16.015-.18.064.01.07.107.14.128"/>
        <path fill="#B1764D" d="M13.633 10.114h-.218c.016-.075.096-.085.155-.112.026.037.052.069.063.112"/>
        <path fill="#86503B" d="M14.346 10.322c-.054-.032-.059-.112-.128-.117l-.048.063-.143-.218c.085.047.074-.118.143-.021l.176.293z"/>
        <path fill="#B1764D" d="M13.926 10.092l.063.256c-.1-.032-.165-.193-.202-.31.033.054.118.086.14.054"/>
        <path fill="#EC1D24" d="M11.683 10.37c-.091.042-.165-.086-.208-.15.017-.058.123-.095.154-.17.037.1.096.208.054.32"/>
        <path fill="#86503B" d="M12.751 10.114c.031.074.06.154.026.234-.09.022-.202.022-.265-.053-.074-.06-.054-.165-.037-.245.074.064.185.16.276.064"/>
        <path fill="#B1764D" d="M13.57 10.22c-.063.122-.224.08-.346.085l-.048-.022c.102-.063.26-.042.394-.063"/>
        <path fill="#538664" d="M10.98 10.412c-.03-.012-.052-.038-.09-.027l.075-.101c.043.016.033.09.016.127"/>
        <path fill="#B1764D" d="M13.835 10.385c.011-.005.016-.016.026-.016l.017.016c-.128.054-.25.106-.399.102l.143-.165c.054.058.133.095.213.063"/>
        <path fill="#2AB573" d="M12.267 10.604c.038.154-.048.287-.164.394h-.037c.015-.005.01-.027.01-.038-.08-.074-.154.028-.24.01 0-.025-.005-.047-.026-.062-.042 0-.096.058-.127 0 .037-.107-.08-.214-.117-.321.048 0 .005-.074-.011-.111.043-.027.102.037.154 0l.075-.128c.197 0 .33.176.483.256"/>
        <path fill="#86503B" d="M15.239 10.897c-.122-.021-.292.005-.34-.145-.037-.047-.011-.143-.091-.148-.021.016-.032.037-.026.064l-.117-.235c.159.256.505.16.574.464"/>
        <path fill="#86503B" d="M15.356 10.795c-.117.054-.16-.106-.218-.17l-.101-.192.319.362z"/>
        <path fill="#538664" d="M10.944 10.524v.063h-.117c.01-.063.058-.18.117-.063"/>
        <path fill="#F6931D" d="M12.958 10.55c-.005.102-.032.23-.128.256-.116.015-.148-.117-.18-.192-.01-.058.064-.096.101-.117.06.005.122.074.127-.02.043-.007.075.036.08.073"/>
        <path fill="#FEFEFE" d="M11.794 10.55c-.016.064-.063-.016-.1-.026l.015-.037c.037-.006.09.021.085.063M11.964 10.513a.053.053 0 0 1-.042.063c-.048.006-.096-.037-.075-.079l.117.016z"/>
        <path fill="#538664" d="M10.508 10.689l-.01.016c-.033-.011-.049-.053-.043-.09l.042-.028c.022.028.037.076.011.102"/>
        <path fill="#FEFEFE" d="M11.847 10.667c-.042.054-.111.054-.164.021-.032-.026-.054-.069-.017-.1.043.191.235-.112.181.08M12.13 10.641c.031.053-.012.111-.017.165h-.02c-.027-.054-.018-.139.036-.165"/>
        <path fill="#00A550" d="M17.179 11.242c.17-.059.096-.314.292-.335-.08.282-.229.607-.531.73-.037-.278-.128-.629.148-.82-.069.138-.122.308-.1.446h.037c.068-.196.137-.393.281-.558 0 .191-.085.372-.127.537"/>
        <path fill="#FEFEFE" d="M11.986 10.742c.026.08-.063.085-.101.127h-.027c-.026-.068.075-.11.128-.127"/>
        <path fill="#2AB573" d="M12.586 10.752c-.01.123-.053.336.091.41.111.022.212-.068.244-.165l.011-.053c.052.043.196.022.154.118-.032.1-.054.18-.117.255-.107.042-.207.101-.346.075l.064-.075c-.038-.058-.09 0-.138 0-.139-.043-.239-.165-.357-.245.033-.117.208-.18.176-.33l.218.01z"/>
        <path fill="#F6931D" d="M14.782 10.78l.026-.027c.048.24.314.229.51.256.027.027.054.069.027.106a.228.228 0 0 1-.217.038c.079-.054-.048-.123-.102-.155a.811.811 0 0 0-.435-.037c.015-.042-.038-.037-.054-.053l-.238.063v-.037c.11-.074.35.005.355-.191.043.02.08.079.128.037"/>
        <path fill="#2AB573" d="M13.67 10.88c.128.043.261.075.4.107-.017.064-.107.133-.044.203.075 0 .123-.054.181-.076.006.108-.074.198-.026.304a.555.555 0 0 1-.266.208l-.016-.117c-.106-.053-.16.101-.255.117.037-.032 0-.08-.037-.09l-.229.101c-.02-.027.09-.085.011-.128-.096.054-.192-.032-.229-.117a.497.497 0 0 1 .101-.432l-.01-.053c.053.042.111-.027.164.016.032-.048.005-.106-.026-.144.117-.016.154.23.281.101"/>
        <path fill="#EC1D24" d="M12.841 10.908c.006.063-.048.117-.09.154-.054.022-.08-.037-.074-.074l.01-.128.154.048z"/>
        <path fill="#F6931D" d="M16.466 10.86c.011.03-.03.079.026.1h.022c.026.059.026.155-.048.176l-.09-.01c.005-.053.048-.101.011-.155a.12.12 0 0 0-.128-.048c.032-.08.128-.063.207-.063"/>
        <path fill="#FEFEFE" d="M13.942 11.062c-.011.016-.026.01-.043.01-.037-.016-.026-.064-.011-.084.048 0 .059.03.054.074"/>
        <path fill="#F6931D" d="M14.388 11.153c-.042-.006-.032-.054-.042-.08a.469.469 0 0 1 .207-.075l-.165.155z"/>
        <path fill="#EC1D24" d="M16.323 11.008c.017.134-.111.16-.191.234-.048.017-.07-.042-.085-.063-.032-.096.08-.112.128-.154.047-.006.1-.048.148-.017"/>
        <path fill="#00A550" d="M10.902 11.153c.02.042.01.096.063.128l.09-.017a.153.153 0 0 0 .065.144h.1c-.015.09-.063.197-.164.219l-.165-.016c.027-.032.122-.026.127-.102.01-.106-.116-.052-.153-.117-.07-.005-.117.032-.176-.01.085-.042.165.005.239-.064-.005-.06-.032-.117-.09-.14l-.24-.015c.059.016.107-.01.128-.064v-.091c.08.017.059.208.176.145"/>
        <path fill="#FEFEFE" d="M13.85 11.115l-.015.086c-.042.016-.026-.038-.063-.048-.048.01-.085.079-.14.037-.014-.054.049-.075.075-.101-.037-.033-.174.015-.127-.08.1.01.245-.032.27.106M12.358 11.136c-.032-.016-.026-.048-.026-.074.02-.022.042-.054.079-.037.01.048-.005.095-.053.111M13.022 11.025c-.021.026-.005.096-.063.09-.048-.042.015-.107.063-.09"/>
        <path fill="#2AB573" d="M15.994 11.28l.165.112c-.096.096-.24.113-.367.155-.012.032.004.064.036.064l.111-.011c-.005.048-.063.096-.11.112-.155.01-.31 0-.399-.112-.033-.01-.054.01-.064.037l.016.054c-.107 0-.144-.16-.244-.091.031.122.164.17.27.192-.138.1-.329.069-.499.075-.086-.208.201-.176.266-.347.116.059.185-.085.281-.112.026-.144.143-.255.228-.356a.133.133 0 0 0 .043.11l.164-.137c.085.064.043.18.102.256M15.037 11.099c-.022.021-.012.054-.012.08.049.064.129.08.203.085-.085.416-.643.314-.792.731-.021.047-.042.1-.09.126-.117-.026-.15-.159-.191-.254 0-.256.069-.539.334-.64a.809.809 0 0 1 .192-.191.704.704 0 0 1 .356.063"/>
        <path fill="#FEFEFE" d="M13.57 11.227a.227.227 0 0 1-.117.208c-.042.005-.085-.011-.101-.054v-.026c.059.02.155-.026.155-.102.015-.07-.086-.1-.04-.165.077.01.082.09.103.139M14.792 11.227h.026c.033.059-.043.069-.09.08-.064.016-.085-.032-.1-.08-.012-.021.015-.032.025-.048h.027c0 .016-.01.037.01.048.06-.016.038-.112.118-.112l-.016.112zM15.409 11.19a.267.267 0 0 1-.107.19c.033-.036-.021-.201.107-.19M12.97 11.227c-.022.059-.08.08-.14.08-.01-.064.06-.085.102-.106.021-.006.026.015.037.026M14.282 11.264l.017-.063.026.026zM13.915 11.242c-.048.091-.117.192-.229.203-.027-.016-.032-.038-.027-.064.091-.016.165-.107.23-.165l.026.027zM15.711 11.28c.011.027-.01.06-.037.064a.074.074 0 0 1-.09-.053l.026-.064c.022.016.053.075.101.054"/>
        <path fill="#FEFEFE" d="M13.453 11.28v.027c-.021.016-.07.005-.085-.026.021-.017.068-.054.084 0M15.929 11.253c.011 0 .032-.005.038.011.01.048-.027.085-.048.106l.074.022c-.005.043-.043.058-.074.064-.058.016-.095-.02-.117-.064.011-.048-.021-.107.026-.139.043 0 .064.075.101 0M14.042 11.329c.011.042-.037.053-.053.079-.026 0-.058.006-.074-.026-.027-.06.042-.042.064-.064.021.005.047-.01.063.01M14.782 11.392l.074-.037c.032.016 0 .053-.011.08l.065.021c0 .048-.043.048-.075.064-.074.016-.096-.037-.116-.085-.028-.064.1-.16.063-.043M14.537 11.37c-.038.022-.038.06-.038.103l.017.01c.053-.016.053-.085.112-.101.026.016.005.069-.011.09l-.053.048.117.016c.01.043-.038.049-.064.064-.085.027-.16-.032-.181-.101 0-.064-.004-.14.064-.154.02-.005.027.015.037.026M15.154 11.344c.016.06-.06.074-.091.102-.015 0-.031.004-.037-.01 0-.06.069-.092.128-.092"/>
        <path fill="#00A550" d="M13.05 11.574c-.033.03-.097.1-.145.037.053-.032.117-.08.127-.154-.015-.017-.015-.065.017-.075.037.047.037.143 0 .192"/>
        <path fill="#FEFEFE" d="M15.61 11.456c.06-.006.107-.086.166-.064-.011.064-.075.09-.112.127.016.027.048.011.064.043s-.027.038-.054.038c-.052-.006-.116-.048-.126-.102 0-.042-.011-.096.037-.117l.026.075z"/>
        <path fill="#F6931D" d="M12.23 11.61c-.048.075-.122.043-.181.017-.037-.048-.085-.112-.048-.181.075.053.16.1.229.165"/>
        <path fill="#00A550" d="M12.943 11.446c.02.042-.021.1-.075.117-.01-.043.006-.128.075-.117"/>
        <path fill="#FEFEFE" d="M14.819 11.546c.032.064-.048.064-.091.08h-.02c0-.016-.011-.02-.017-.026.037-.037.085-.037.128-.054"/>
        <path fill="#538664" d="M11.465 11.688c-.006.005-.096-.208-.106-.213-.027-.016.127-.157.148-.174-.005.022-.032.366-.042.387"/>
        <path fill="#F6931D" d="M13.942 11.739l.01-.011c.038.25.059.51.219.714-.038.053-.128.053-.166.016-.143-.198-.047-.512-.254-.656-.027-.021-.011-.058-.016-.09l.063-.048c.022.038.075.1.144.075"/>
        <path fill="#FEFEFE" d="M14.462 11.663c.026.075-.239.182-.037.176.011.032-.022.048-.037.053-.064-.005-.144-.032-.155-.1.017-.049-.037-.08 0-.118l.065.101c.058-.02.09-.117.164-.112"/>
        <path fill="#00ADEE" d="M12.985 11.893l-.063-.064c.037-.016.063-.06.1-.09a.6.6 0 0 0 .304.228c.09.123.09.288.063.427-.101-.096-.367.042-.302-.208.01 0 .03.005.037-.011-.048-.165-.218-.186-.357-.208-.095.059-.1-.058-.165-.1l-.297-.156c.255-.005.42.284.68.182"/>
        <path fill="#F6931D" d="M13.58 12.01c.106.043.127-.202.207-.043.022.208.043.416.176.575l-.15-.02c-.004-.097-.03-.208-.127-.245-.123.042-.127.037-.19-.065l-.018-.09c.043 0 .102.037.128-.027-.052-.069-.217-.064-.202-.202.022-.048 0-.123.064-.139-.037.096-.005.235.112.256"/>
        <path fill="#F6931D" d="M13.633 11.904c-.042.005-.106.005-.1-.048-.033-.096.08-.016.1-.08v.128zM14.643 11.92c.02-.08.096-.086.149-.129 0 .032-.085.112-.15.128"/>
        <path fill="#00A550" d="M16.403 12.01c-.016.016-.037.026-.037.048.016.054.063.015.085 0 .058-.102.19-.16.255-.267.058.091-.07.193.026.256l.09-.016a.498.498 0 0 1-.217.335c-.186.065-.393.081-.585.128-.032-.282.17-.51.357-.703.052.06.01.145.026.22"/>
        <path fill="#538664" d="M11.246 11.904c-.01.026-.186-.048-.207-.043l.144-.06c.07-.01.07.049.063.103"/>
        <path fill="#F6931D" d="M15.791 11.829a.35.35 0 0 1-.255.138c-.058-.047-.01-.117.011-.164.08.01.153.037.244.026"/>
        <path fill="#00A550" d="M11.683 12.02c.059.027.09-.042.11-.074v-.042c.08.09.092.293.245.234.006.1-.015.219.065.293.106.037.138.15.19.229-.111-.027-.292-.07-.381.038.02-.065-.027-.16-.102-.176-.09.01-.191.148-.271.02l-.043-.042c.065-.123.088-.04.25-.15-.127-.116-.334.065-.398-.175.079-.037.255.037.244-.117-.026-.026-.063-.043-.09-.074l.053-.117a.3.3 0 0 0 .128.154"/>
        <path fill="#00ADEE" d="M15.42 11.984c-.092.096-.347 0-.32.176l.09.079c-.032.097-.148.027-.207.075.048-.143-.25-.186-.085-.347.16-.004.362.028.495-.074.021.01.015.059.026.09"/>
        <path fill="#F6931D" d="M14.718 12.112c.031.016.074.048.074.09-.1-.031-.197.037-.265.128l-.054.075c-.042-.075-.149.026-.229-.027-.1-.112-.132-.25-.154-.394.06.085.107.213.218.239.101.016.181-.074.22-.15.008-.143.19.007.253-.116.027.096-.143.053-.063.155"/>
        <path fill="#00A550" d="M12.458 11.984c-.053.005-.048.096-.09.026-.006-.01-.01-.015-.02-.015-.06.02 0 .063 0 .09.047.058.131.058.164-.027l-.017-.074h.027c-.01.037-.01.096.053.11-.026.034-.032.08-.08.08-.09-.08-.18.017-.238-.127-.017-.117.138-.074.201-.063"/>
        <path fill="#F6931D" d="M15.456 12.175c.016.063 0 .154-.063.202-.033.06-.113.086-.155.054-.02-.01-.006-.037-.01-.054.021-.026.063 0 .074-.037-.085-.09.091-.139.154-.165"/>
        <path fill="#538664" d="M12.432 12.277c-.031.063-.026.154-.101.19-.043-.062-.01-.217.101-.19"/>
        <path fill="#F6931D" d="M14.792 12.34c.026.07-.122.085-.048.154-.037.033-.085-.005-.117-.026-.048-.043.032-.09.037-.139.026-.042.14-.074.128.011M12.985 12.468c-.042.032-.101.026-.154.026-.037-.052.027-.117.075-.128l.079.011v.091zM13.67 12.367c.048.048.08.139.017.192a.169.169 0 0 1-.144.01c-.054-.042-.054-.111-.048-.175l.021-.027.027.048.127-.048z"/>
        <path fill="#00ADEE" d="M13.953 12.724l-.245-.054c.057-.143.175.006.27-.02.177-.028.384-.049.549-.128-.117.159-.351.213-.574.202"/>
        <path fill="#538664" d="M12.475 12.607l-.017.063-.1-.1c.02-.048.122-.027.117.037"/>
        <path fill="#00A550" d="M15.472 12.585c-.026.006-.048.032-.063.048.032.171.217 0 .33.054.015.09-.277.25-.028.293l-.573.191c-.112-.074-.234-.107-.33-.218.08-.027.218.016.239-.09l-.176-.01c.139-.204.378-.236.601-.268M13.213 12.788c.106.139.25.064.394.102-.043.064-.064.165-.139.229-.048-.032.07-.102-.026-.14-.075-.015-.117.07-.155.119-.015.042-.01.095-.063.127-.027-.064.063-.127-.027-.17-.1.005-.165.112-.265.128.005-.043.048-.161.01-.213-.084-.006-.18.046-.265.1v-.128c-.117-.043-.202.064-.309.101.016-.122.266-.139.155-.293l.09.064.053-.064-.016-.016.016-.01c.053.084.111.186.23.18a.106.106 0 0 0 .036-.143c.037.07.1.112.18.101.064-.048.032-.1.022-.165.042.005.053.064.08.09"/>
        <path fill="#538664" d="M12.114 12.75c0 .043-.043.075-.075.091-.021-.01-.037-.01-.053-.027.01-.047.074-.1.128-.064M12.257 12.778c-.017.03-.048.074-.09.074l.036-.101.054.027z"/>
        <path fill="#EC1D24" d="M14.346 12.815c-.032-.017.042.144-.021.239h-.043l-.022-.256c.038.017.048-.026.086-.01v.027z"/>
        <path fill="#00A550" d="M13.99 13.033c-.08.038-.07-.063-.091-.117-.026-.06.048-.07.065-.09l.026.207z"/>
        <path fill="#FEFEFE" d="M14.197 12.97v.073h-.106c-.038-.058-.027-.154-.011-.218.106-.038.09.09.117.144"/>
        <path fill="#00A550" d="M13.703 13.388h-.124c.004-.054.224-.195.3-.243-.076.058-.103.184-.177.243"/>
        <path fill="#FEFEFE" d="M13.773 13.37l.232-.225-.148.27z"/>
        <path fill="#EC1D24" d="M13.963 13.438c-.017-.006-.037-.006-.048-.021l.23-.272c-.023.117-.119.197-.182.293M14.664 13.31c.026.026-.026.059-.048.063-.11-.074-.255-.148-.335-.228l.383.165z"/>
        <path fill="#00A550" d="M14.553 13.476c-.017.017-.018.105-.045.116-.074-.096-.22-.234-.338-.256l.04-.108.343.248z"/>
    </g>
</svg>
