<svg xmlns="http://www.w3.org/2000/svg" width="58" height="58" viewBox="0 0 58 58">
    <g fill="#C94504" fill-rule="evenodd">
        <path d="M25.577 10.8a1.241 1.241 0 1 1 0 2.483 1.241 1.241 0 0 1 0-2.483M15.62 25.283h19.863v-1.655H15.62zM15.62 40.18h9.932v-1.655H15.62zM43.709 36.87a4.971 4.971 0 0 1-4.966 4.965v1.655a6.62 6.62 0 0 0 6.62-6.62H43.71M27.695 33.559H15.62v1.655h11.718c.082-.565.196-1.12.356-1.655M30.7 28.593H15.62v1.655h13.678c.416-.594.885-1.149 1.402-1.655"/>
        <path d="M38.793 45.145c-4.563 0-8.276-3.713-8.276-8.276s3.713-8.276 8.276-8.276 8.276 3.713 8.276 8.276-3.713 8.276-8.276 8.276zm1.655 1.655c0 .913-.742 1.655-1.655 1.655h-8.12l3.05-3.058a9.87 9.87 0 0 0 5.07 1.403 9.95 9.95 0 0 0 1.655-.149v.15zm-13.996 3.545l-1.17-1.17 5.903-5.928c.355.423.747.814 1.168 1.173l-5.9 5.925zM17.276 16.98a3.328 3.328 0 0 1 2.39-3.155 3.928 3.928 0 0 0 2.704-2.702 3.324 3.324 0 0 1 3.182-2.392c1.468 0 2.776.983 3.182 2.392a3.923 3.923 0 0 0 2.7 2.701 3.324 3.324 0 0 1 2.393 3.182v1.655H17.276v-1.681zm21.517 9.957c-5.485 0-9.93 4.446-9.93 9.931 0 1.826.5 3.53 1.36 5l-6.115 6.137c-.132.133-.219.29-.297.45h-11.5a1.657 1.657 0 0 1-1.656-1.656V17.007c0-.912.743-1.655 1.655-1.655h3.594a4.95 4.95 0 0 0-.283 1.616v3.35h19.862v-3.31a4.95 4.95 0 0 0-.286-1.656h3.596c.913 0 1.655.743 1.655 1.655v8.408c.565.081 1.12.196 1.655.356v-8.764a3.31 3.31 0 0 0-3.31-3.31h-4.596a4.952 4.952 0 0 0-2.305-1.463 2.278 2.278 0 0 1-1.568-1.567 4.968 4.968 0 0 0-9.545 0 2.282 2.282 0 0 1-1.57 1.568c-.904.26-1.69.781-2.303 1.462H12.31A3.31 3.31 0 0 0 9 17.007V46.8a3.31 3.31 0 0 0 3.31 3.31h11.643c.055.079.088.168.158.238l1.172 1.169a1.65 1.65 0 0 0 1.17.483 1.65 1.65 0 0 0 1.171-.486l1.399-1.403h9.77a3.31 3.31 0 0 0 3.31-3.31v-.578c3.855-1.365 6.621-5.031 6.621-9.354 0-5.485-4.446-9.93-9.93-9.93z"/>
    </g>
</svg>
